<svg width="28" height="29" viewBox="0 0 28 29" fill="none" xmlns="http://www.w3.org/2000/svg">
<path d="M6.2675 28.9935H0.4625V10.2998H6.2675V28.9935ZM3.36188 7.74977C1.50563 7.74977 0 6.21227 0 4.35602C1.32862e-08 3.46439 0.354197 2.60928 0.98467 1.97881C1.61514 1.34834 2.47025 0.994141 3.36188 0.994141C4.2535 0.994141 5.10861 1.34834 5.73908 1.97881C6.36955 2.60928 6.72375 3.46439 6.72375 4.35602C6.72375 6.21227 5.2175 7.74977 3.36188 7.74977ZM27.9937 28.9935H22.2013V19.8935C22.2013 17.7248 22.1575 14.9435 19.1831 14.9435C16.165 14.9435 15.7025 17.2998 15.7025 19.7373V28.9935H9.90375V10.2998H15.4712V12.8498H15.5525C16.3275 11.381 18.2206 9.83102 21.045 9.83102C26.92 9.83102 28 13.6998 28 18.7248V28.9935H27.9937Z" fill="black"/>
</svg>
