<svg width="32" height="24" viewBox="0 0 32 24" fill="none" xmlns="http://www.w3.org/2000/svg">
<path d="M31.3313 4.26267C30.9633 2.87693 29.879 1.78557 28.5022 1.41519C26.0067 0.742188 16 0.742188 16 0.742188C16 0.742188 5.99337 0.742188 3.49781 1.41519C2.12103 1.78562 1.0367 2.87693 0.668671 4.26267C0 6.77441 0 12.0149 0 12.0149C0 12.0149 0 17.2554 0.668671 19.7671C1.0367 21.1529 2.12103 22.1988 3.49781 22.5692C5.99337 23.2422 16 23.2422 16 23.2422C16 23.2422 26.0066 23.2422 28.5022 22.5692C29.879 22.1988 30.9633 21.1529 31.3313 19.7671C32 17.2554 32 12.0149 32 12.0149C32 12.0149 32 6.77441 31.3313 4.26267ZM12.7273 16.7729V7.25692L21.0909 12.015L12.7273 16.7729Z" fill="black"/>
</svg>
